<svg width="37" height="15" viewBox="0 0 37 15" fill="none" xmlns="http://www.w3.org/2000/svg">
<path d="M0.945 11V0.675H2.464V10.538L1.778 9.712H6.461V11H0.945ZM11.626 11.14C10.8607 11.14 10.184 10.9743 9.59602 10.643C9.01268 10.3117 8.55535 9.85667 8.22402 9.278C7.89735 8.69467 7.73402 8.02733 7.73402 7.276C7.73402 6.52933 7.89735 5.869 8.22402 5.295C8.55535 4.71633 9.01268 4.266 9.59602 3.944C10.184 3.61733 10.8607 3.454 11.626 3.454C12.3913 3.454 13.0657 3.61733 13.649 3.944C14.237 4.266 14.6943 4.71633 15.021 5.295C15.3523 5.869 15.518 6.52933 15.518 7.276C15.518 8.02733 15.3523 8.69467 15.021 9.278C14.6943 9.85667 14.237 10.3117 13.649 10.643C13.0657 10.9743 12.3913 11.14 11.626 11.14ZM11.626 9.838C12.0927 9.838 12.5033 9.733 12.858 9.523C13.2127 9.313 13.4903 9.01667 13.691 8.634C13.8917 8.24667 13.992 7.794 13.992 7.276C13.992 6.76267 13.8917 6.317 13.691 5.939C13.4903 5.561 13.2127 5.26933 12.858 5.064C12.5033 4.85867 12.0927 4.756 11.626 4.756C11.164 4.756 10.7533 4.85867 10.394 5.064C10.0393 5.26933 9.76168 5.561 9.56102 5.939C9.36035 6.317 9.26002 6.76267 9.26002 7.276C9.26002 7.794 9.36035 8.24667 9.56102 8.634C9.76168 9.01667 10.0393 9.313 10.394 9.523C10.7533 9.733 11.164 9.838 11.626 9.838ZM22.0878 10.405C22.5078 10.4423 22.8765 10.5217 23.1938 10.643C23.5112 10.7597 23.7585 10.9323 23.9358 11.161C24.1178 11.3943 24.2088 11.7 24.2088 12.078C24.2088 12.5027 24.0642 12.8713 23.7748 13.184C23.4902 13.5013 23.0632 13.7463 22.4938 13.919C21.9245 14.0963 21.2175 14.185 20.3728 14.185C19.1642 14.185 18.2425 14.01 17.6078 13.66C16.9732 13.31 16.6558 12.834 16.6558 12.232C16.6558 12.05 16.6768 11.889 16.7188 11.749C16.7608 11.609 16.8122 11.4923 16.8728 11.399L18.2868 11.609C18.2542 11.6557 18.2215 11.7233 18.1888 11.812C18.1562 11.9053 18.1398 12.0173 18.1398 12.148C18.1398 12.4793 18.3428 12.715 18.7488 12.855C19.1548 12.995 19.7172 13.065 20.4358 13.065C20.9632 13.065 21.3995 13.0277 21.7448 12.953C22.0948 12.883 22.3562 12.7803 22.5288 12.645C22.7015 12.5097 22.7878 12.351 22.7878 12.169C22.7878 11.8937 22.6688 11.721 22.4308 11.651C22.1928 11.581 21.9058 11.532 21.5698 11.504L18.7488 11.273C18.2588 11.231 17.8575 11.084 17.5448 10.832C17.2368 10.58 17.0828 10.2627 17.0828 9.88C17.0828 9.642 17.1435 9.42033 17.2648 9.215C17.3862 9.00967 17.5262 8.837 17.6848 8.697C17.8482 8.557 17.9882 8.47067 18.1048 8.438L19.0988 8.914C18.9915 8.928 18.8608 9.00033 18.7068 9.131C18.5575 9.257 18.4828 9.40633 18.4828 9.579C18.4828 9.73767 18.5482 9.86833 18.6788 9.971C18.8142 10.0737 19.0755 10.1413 19.4628 10.174L22.0878 10.405ZM23.0188 3.566H24.3978L23.8308 6.471C23.7282 7.01233 23.5392 7.50233 23.2638 7.941C22.9932 8.375 22.6245 8.718 22.1578 8.97C21.6958 9.222 21.1195 9.348 20.4288 9.348C19.7102 9.348 19.0918 9.22433 18.5738 8.977C18.0558 8.72967 17.6568 8.38667 17.3768 7.948C17.1015 7.50467 16.9638 7.00067 16.9638 6.436C16.9638 5.862 17.1062 5.34867 17.3908 4.896C17.6802 4.44333 18.0768 4.08867 18.5808 3.832C19.0895 3.57533 19.6705 3.447 20.3238 3.447C20.8745 3.447 21.3622 3.54033 21.7868 3.727C22.2162 3.91367 22.5568 4.15167 22.8088 4.441C23.0608 4.73033 23.1985 5.03133 23.2218 5.344L22.7878 5.393L23.0188 3.566ZM20.4218 8.109C20.8278 8.109 21.1778 8.04367 21.4718 7.913C21.7658 7.77767 21.9922 7.584 22.1508 7.332C22.3095 7.07533 22.3888 6.76733 22.3888 6.408C22.3888 6.05333 22.3095 5.75 22.1508 5.498C21.9922 5.24133 21.7658 5.04533 21.4718 4.91C21.1778 4.77 20.8302 4.7 20.4288 4.7C20.0415 4.7 19.6985 4.77233 19.3998 4.917C19.1058 5.057 18.8748 5.25533 18.7068 5.512C18.5388 5.76867 18.4548 6.07433 18.4548 6.429C18.4548 6.78367 18.5342 7.087 18.6928 7.339C18.8515 7.58633 19.0778 7.77767 19.3718 7.913C19.6658 8.04367 20.0158 8.109 20.4218 8.109ZM25.8568 11V3.566H27.3548V11H25.8568ZM26.6128 2.026C26.3515 2.026 26.1251 1.956 25.9338 1.816C25.7471 1.67133 25.6538 1.473 25.6538 1.221C25.6538 0.973666 25.7471 0.78 25.9338 0.64C26.1251 0.495333 26.3515 0.423 26.6128 0.423C26.8695 0.423 27.0911 0.495333 27.2778 0.64C27.4691 0.78 27.5648 0.973666 27.5648 1.221C27.5648 1.473 27.4691 1.67133 27.2778 1.816C27.0911 1.956 26.8695 2.026 26.6128 2.026ZM34.6688 11V7.57C34.6688 7.36933 34.6688 7.199 34.6688 7.059C34.6688 6.919 34.6688 6.78833 34.6688 6.667C34.6688 6.303 34.6128 5.98333 34.5008 5.708C34.3888 5.428 34.2045 5.211 33.9478 5.057C33.6911 4.89833 33.3481 4.819 32.9188 4.819C32.5408 4.819 32.1978 4.91233 31.8898 5.099C31.5865 5.28567 31.3438 5.54 31.1618 5.862C30.9845 6.17933 30.8958 6.541 30.8958 6.947L30.2448 6.625C30.2448 6.023 30.3871 5.484 30.6718 5.008C30.9565 4.52733 31.3368 4.147 31.8128 3.867C32.2935 3.587 32.8185 3.447 33.3878 3.447C33.9758 3.447 34.4775 3.56133 34.8928 3.79C35.3128 4.014 35.6325 4.336 35.8518 4.756C36.0758 5.17133 36.1878 5.66833 36.1878 6.247C36.1878 6.46167 36.1878 6.69967 36.1878 6.961C36.1878 7.22233 36.1878 7.47433 36.1878 7.717V11H34.6688ZM29.3768 11V3.566H30.8958V11H29.3768Z" fill="#686868"/>
</svg>
